<svg xmlns="http://www.w3.org/2000/svg" viewBox="0 0 760 540" role="img" aria-labelledby="title desc">
  <title id="title">Bawsala pixel study agent scene</title>
  <desc id="desc">A deep purple pixel scene with an octopus compass, code panels and colored blocks.</desc>
  <rect width="760" height="540" fill="#1d0245"/>
  <g opacity=".55" fill="#642cc2">
    <rect x="18" y="90" width="8" height="8"/><rect x="42" y="122" width="8" height="8"/><rect x="90" y="78" width="80" height="8"/><rect x="612" y="84" width="8" height="8"/><rect x="650" y="118" width="64" height="8"/><rect x="520" y="404" width="150" height="8"/><rect x="74" y="420" width="220" height="8"/>
    <path d="M0 482h760v8H0zM36 502h116v8H36zM216 502h190v8H216zM494 502h230v8H494z"/>
  </g>
  <g transform="translate(264 88)">
    <rect x="58" y="0" width="116" height="32" fill="#642cc2"/>
    <rect x="26" y="32" width="180" height="60" fill="#642cc2"/>
    <rect x="0" y="92" width="232" height="180" fill="#642cc2"/>
    <rect x="32" y="64" width="168" height="204" fill="#7b38df"/>
    <rect x="124" y="48" width="48" height="210" fill="#1d0245"/>
    <rect x="142" y="62" width="14" height="18" fill="#31e8ff"/><rect x="164" y="92" width="12" height="42" fill="#ffca05"/><rect x="146" y="152" width="20" height="14" fill="#ee3daf"/><rect x="174" y="178" width="10" height="52" fill="#31e8ff"/>
    <rect x="58" y="92" width="22" height="22" fill="#09051c"/>
    <rect x="28" y="250" width="74" height="74" fill="#642cc2"/>
    <rect x="-24" y="274" width="54" height="86" fill="#642cc2"/>
    <rect x="150" y="256" width="54" height="108" fill="#642cc2"/>
    <rect x="198" y="288" width="48" height="80" fill="#642cc2"/>
    <rect x="94" y="270" width="42" height="92" fill="#642cc2"/>
  </g>
  <g fill="#150827" stroke="#642cc2" stroke-width="6">
    <path d="M62 218h164v116H62z"/><path d="M538 214h164v116H538z"/><path d="M472 374h190v72H472z"/>
  </g>
  <g font-family="Consolas,monospace" font-size="20" font-weight="700">
    <text x="84" y="252" fill="#ee3daf">GitHub</text><text x="84" y="286" fill="#caa9ff">sources + tasks</text>
    <text x="560" y="248" fill="#31e8ff">Test Suite</text><text x="560" y="282" fill="#caa9ff">focus + review</text>
    <text x="494" y="418" fill="#ffca05">&gt;_ DAILY REPORT</text>
  </g>
  <g fill="#31e8ff"><rect x="42" y="62" width="22" height="22"/><rect x="707" y="178" width="18" height="18"/></g>
  <g fill="#ee3daf"><rect x="94" y="372" width="18" height="18"/><rect x="664" y="56" width="12" height="12"/></g>
  <g fill="#ffca05"><rect x="382" y="36" width="10" height="10"/><rect x="690" y="410" width="12" height="12"/></g>
</svg>
