<svg xmlns="http://www.w3.org/2000/svg" viewBox="0 0 760 520" role="img" aria-label="SchoolMind AI illustration">
  <defs><linearGradient id="a" x1="0" x2="1" y1="0" y2="1"><stop stop-color="#60a5fa"/><stop offset=".5" stop-color="#a78bfa"/><stop offset="1" stop-color="#34d399"/></linearGradient><filter id="s"><feDropShadow dx="9" dy="11" stdDeviation="0" flood-color="#111827" flood-opacity="1"/></filter></defs>
  <rect x="72" y="68" width="616" height="366" rx="38" fill="#eff6ff" stroke="#111827" stroke-width="8" filter="url(#s)"/>
  <circle cx="210" cy="250" r="86" fill="url(#a)" stroke="#111827" stroke-width="8"/>
  <path d="M166 250c26-54 62-54 88 0-26 54-62 54-88 0Z" fill="#fff7ed" stroke="#111827" stroke-width="7"/>
  <circle cx="210" cy="250" r="18" fill="#111827"/>
  <rect x="340" y="142" width="248" height="48" rx="16" fill="#fef3c7" stroke="#111827" stroke-width="6"/>
  <rect x="340" y="222" width="280" height="48" rx="16" fill="#dcfce7" stroke="#111827" stroke-width="6"/>
  <rect x="340" y="302" width="210" height="48" rx="16" fill="#dbeafe" stroke="#111827" stroke-width="6"/>
  <path d="M372 166h142M372 246h188M372 326h112" stroke="#111827" stroke-width="8" stroke-linecap="round"/>
  <path d="M210 112v-38M210 426v-38M72 250H34M726 250h-38M296 164l28-28M296 336l28 28M124 164l-28-28M124 336l-28 28" stroke="#111827" stroke-width="8" stroke-linecap="round"/>
</svg>
